<?xml version="1.0" encoding="UTF-8"?>
<svg id="uuid-d3415caa-6247-49ce-ab0e-4468c7f00d83" data-name="로고" xmlns="http://www.w3.org/2000/svg" viewBox="0 0 1273.35 782.67">
  <defs>
    <style>
      .uuid-ab058ff2-b4c7-4174-98b5-5480de0ef191 {
        fill: #203e60;
      }
    </style>
  </defs>
  <path class="uuid-ab058ff2-b4c7-4174-98b5-5480de0ef191" d="M1216.82,53.2c-117.4-88.19-303.83-40.13-303.83-40.13,0,0,158.28-6.22,220.83,60.43,63.25,67.39,9.03,164.83,3.9,164.19-116.31-14.69-196.62-100.42-307.34-114.4-140.36-17.72-238.39.08-241.66.53-59.71,8.24-83.1,32.6-211.57,115.76-4.21,2.72-159.82-3.03-219.83,30.84-25.75,14.53-43.68,34.57-56.16,55.99l63.66-.64c18.41-18.33,45.55-31.23,85.54-31.23,5.77,0,412.73,4.57,471.04,4.57,55.1,0,385.42-4.57,385.42-4.57l-32.94,34.84s-121.03.24-123.33.4c-108.98,7.53-105.95,119.6-105.95,119.6l50.14-.31s.57-66.76,57.59-74.82c2.32-.33,78.08,0,78.08,0,0,0-60.03,51.55-111.12,85.05-44.69,29.3-92.14,58.69-187.18,103.22-92.06,43.13-218.07,96.05-394.89,113.43-32.65,3.21-158.65,13.8-232.35-32.37-102.02-63.92-41.36-180.69-41.36-180.69,0,0-189.19,228.18,85.44,301.93,169.75,45.58,363.5-6.11,472.2-43.29,322.22-110.19,474.32-256.13,561.1-354.96,98.69-112.39,127.51-243.53,34.55-313.36ZM770.83,254.26c-196.46-1.53-340.34-5.21-340.34-5.21,0,0,99.19-70.34,153.05-83.58,16.93-4.16,176.9-3.69,212.79-.75,68.11,5.58,138.15,56.98,164.43,67.02,18.44,7.05-110.8,22.52-189.94,22.52ZM73.34,449.38s-3.04-39.06,10.44-82.81h55.05c-15.81,40.42-11.56,82.81-11.56,82.81h-53.93ZM224.74,449.38h-53.54s-9.02-120.12,102.17-119.26h349.75s-40.4,38.81-147.37,44.13c-5.62.28-187.64-.52-192.18,0-59.12,6.8-58.84,75.13-58.84,75.13Z"/>
</svg>